<svg width="120" height="126" viewBox="0 0 120 126" fill="none" xmlns="http://www.w3.org/2000/svg">
<rect width="120" height="126" rx="32" fill="#0666F6"/>
<path fill-rule="evenodd" clip-rule="evenodd" d="M71.6258 64.8747C72.6648 64.8747 73.5051 64.0359 73.5051 62.9998V40.3749C73.5051 39.3388 72.6648 38.4999 71.6258 38.4999H65.9881V36.625C65.9881 33.5234 63.4589 31 60.3503 31C57.2417 31 54.7126 33.5234 54.7126 36.625V38.4999H49.0748C48.0363 38.4999 47.1955 39.3388 47.1955 40.3749V62.9998C47.1955 64.0359 48.0363 64.8747 49.0748 64.8747H71.6258ZM58.4711 36.625C58.4711 35.5903 59.3153 34.75 60.3503 34.75C61.3854 34.75 62.2296 35.5903 62.2296 36.625V38.4999H58.4711V36.625ZM86.1206 61.1248C86.7773 61.1248 87.3905 61.469 87.7282 62.0291C88.0693 62.5916 88.0913 63.2908 87.783 63.8713L79.1282 80.3414C76.8486 84.6793 72.3819 87.3746 67.4743 87.3746H51.7322L44.6042 94.4502C44.2372 94.8164 43.7561 95 43.2755 95C42.7949 95 42.3139 94.8164 41.9468 94.4502L32.5506 85.1114C31.8165 84.379 31.8165 83.1925 32.5506 82.4601L43.6646 71.3713C45.4411 69.6008 47.7975 68.6247 50.308 68.6247H69.8425C70.4161 68.6247 70.948 68.9226 71.2456 69.4118C71.5426 69.9016 71.5612 70.5104 71.295 71.0173C70.4498 72.6266 69.4667 74.4992 69.1412 75.1193C68.8143 75.7404 68.1756 76.1247 67.4743 76.1247H54.7125C53.6741 76.1247 52.8333 76.9635 52.8333 77.9996C52.8333 79.0358 53.6741 79.8746 54.7125 79.8746H67.4748C69.5777 79.8746 71.4903 78.7213 72.47 76.861L78.2346 65.8845C79.7717 62.9583 82.8094 61.1248 86.1206 61.1248Z" fill="white"/>
</svg>
