<svg width="249" height="135" viewBox="0 0 249 135" fill="none" xmlns="http://www.w3.org/2000/svg">
<rect width="249" height="135" rx="32" fill="#E6F0FF"/>
<path fill-rule="evenodd" clip-rule="evenodd" d="M151.044 84.4391C150.261 83.647 148.982 83.647 148.199 84.4391L147.893 84.7486C147.123 85.5278 147.123 86.7814 147.893 87.5606L151.559 91.2693H92C90.8954 91.2693 90 92.1647 90 93.2693V93.7306C90 94.8352 90.8954 95.7306 92 95.7306H151.559L147.893 99.4394C147.123 100.219 147.123 101.472 147.893 102.251L148.199 102.561C148.982 103.353 150.261 103.353 151.044 102.561L158.61 94.9059C159.38 94.1268 159.38 92.8731 158.61 92.094L151.044 84.4391Z" fill="#4D5163"/>
<path d="M71.5078 67.0352H59.6406L62.1562 59.8438H68.7188L59.0117 34.7148H70.7969L85.2617 71H73.0391L71.5078 67.0352ZM56.4141 71H44.7383L57.6992 36.3555L63.0586 50.7656L56.4141 71Z" fill="#4D5163"/>
<circle cx="65" cy="93" r="12" fill="white"/>
<circle cx="65" cy="93" r="6" fill="#0666F6"/>
<path d="M190.715 41.9609H181.746V34.7148H195.773L203.047 41.9609V49.3438L199.41 52.9805L203.047 56.6172V63.7539L195.773 71H181.746V63.7539H190.715V56.0156H181.746V49.6992H190.715V41.9609ZM167.746 34.7148H179.832V71H167.746V34.7148Z" fill="#4D5163"/>
<circle cx="185" cy="93" r="12" fill="white"/>
<circle cx="185" cy="93" r="6" fill="#ED7171"/>
</svg>
