<svg width="402" height="131" viewBox="0 0 402 131" fill="none" xmlns="http://www.w3.org/2000/svg">
<path d="M34.1551 35.6701H79.4097V131H34.1551V35.6701ZM0.115741 0.450235H113.449V28.8819H0.115741V0.450235ZM125.038 131V0.450235H168.522V131H125.038ZM175.409 26.5208V0.450235H225.09L251.259 26.5208V65.6759L231.19 85.7454L229.812 82.9907L188.985 88.4016L190.559 91.8449H175.409V66.5613H208.071V26.5208H175.409ZM255.686 131H209.251L190.559 91.8449H225.09L231.19 85.7454L255.686 131ZM351.882 116.735H309.185L318.236 90.8611H341.847L306.922 0.450235H349.324L401.367 131H357.391L351.882 116.735ZM297.576 131H255.568L302.2 6.35301L321.483 58.1991L297.576 131Z" fill="white"/>
</svg>
