<svg width="249" height="135" viewBox="0 0 249 135" fill="none" xmlns="http://www.w3.org/2000/svg">
<rect width="249" height="135" rx="32" fill="#D5E2F6"/>
<path d="M49 54L39.5954 58.9443L41.3915 48.4721L33.7831 41.0557L44.2977 39.5279L49 30L53.7023 39.5279L64.2169 41.0557L56.6085 48.4721L58.4046 58.9443L49 54Z" fill="#ED7171"/>
<path d="M85 54L75.5954 58.9443L77.3915 48.4721L69.7831 41.0557L80.2977 39.5279L85 30L89.7023 39.5279L100.217 41.0557L92.6085 48.4721L94.4046 58.9443L85 54Z" fill="#ED7171"/>
<path d="M121 54L111.595 58.9443L113.392 48.4721L105.783 41.0557L116.298 39.5279L121 30L125.702 39.5279L136.217 41.0557L128.608 48.4721L130.405 58.9443L121 54Z" fill="#ED7171"/>
<path d="M157 54L147.595 58.9443L149.392 48.4721L141.783 41.0557L152.298 39.5279L157 30L161.702 39.5279L172.217 41.0557L164.608 48.4721L166.405 58.9443L157 54Z" fill="#ED7171"/>
<path d="M193 54L183.595 58.9443L185.392 48.4721L177.783 41.0557L188.298 39.5279L193 30L197.702 39.5279L208.217 41.0557L200.608 48.4721L202.405 58.9443L193 54Z" fill="#ED7171"/>
<rect x="33" y="77" width="146" height="8" rx="4" fill="#4D5163"/>
<rect x="33" y="93" width="93" height="8" rx="4" fill="#4D5163"/>
</svg>
