<svg width="140" height="140" viewBox="0 0 140 140" fill="none" xmlns="http://www.w3.org/2000/svg">
<circle cx="70" cy="70" r="70" fill="#ED7171"/>
<path fill-rule="evenodd" clip-rule="evenodd" d="M44.1592 67.3651H41V61.4798C42.2551 61.4798 43.0757 60.217 43.5316 58.8236C45.1059 54.02 47.7957 46.7999 54.4091 42.2734V51.3797C54.4091 52.8504 55.6105 54.044 57.0909 54.044C58.5713 54.044 59.7727 52.8504 59.7727 51.3797V39.5586C62.1005 38.7353 64.7636 38.1838 67.8182 38V46.0513C67.8182 47.5219 69.0196 48.7155 70.5 48.7155C71.9804 48.7155 73.1818 47.5219 73.1818 46.0513V38.0586C76.223 38.3091 78.8887 38.9298 81.2273 39.8197V51.3797C81.2273 52.8504 82.4287 54.044 83.9091 54.044C85.3895 54.044 86.5909 52.8504 86.5909 51.3797V42.6704C93.0031 47.1996 95.878 54.1372 97.471 58.8236C97.9404 60.209 98.7449 61.4798 100 61.4798V67.3651H96.8381C98.3802 68.588 100 70.9884 100 75.7068C100 80.0495 97.5756 85.5271 92.2844 87.7784C86.5105 96.9566 78.8029 102 70.5 102C62.1971 102 54.4895 96.9566 48.7129 87.7784C43.4217 85.5271 41 80.0495 41 75.7068C41 70.9884 42.6171 68.588 44.1592 67.3651V67.3651ZM76.4 87.2375H64.6C64.6107 87.2695 66.2788 91.8733 70.5 91.8733C74.8821 91.8733 76.3893 87.2695 76.4 87.2375ZM88.5138 67.3651H52.4835L52.4487 68.7372C52.4487 70.5169 50.6197 71.7051 48.9945 70.9858C48.5413 70.7859 47.8413 70.7913 47.3398 71.1163C44.8806 72.7175 45.1434 81.4109 51.1614 83.449C53.618 84.2829 57.5012 91.7161 61.701 84.5094C63.1545 82.021 67.7377 81.7412 70.5 83.7181C73.2596 81.7412 77.8455 82.021 79.2964 84.5094C83.4961 91.7161 87.3794 84.2829 89.8359 83.449C95.8539 81.4109 96.1167 72.7175 93.6575 71.1163C93.0809 70.7433 92.3515 70.8339 92.0055 70.9858C90.3803 71.7078 88.5486 70.5169 88.5486 68.7372L88.5138 67.3651V67.3651ZM62.5109 70.0187C60.8106 70.0187 59.4375 71.6705 59.4375 73.7086C59.4375 75.7467 60.8106 77.3986 62.5109 77.3986C64.2058 77.3986 65.5842 75.7467 65.5842 73.7086C65.5842 71.6705 64.2058 70.0187 62.5109 70.0187V70.0187ZM81.5625 73.7086C81.5625 75.7467 80.1867 77.3986 78.4891 77.3986C76.7915 77.3986 75.4158 75.7467 75.4158 73.7086C75.4158 71.6705 76.7915 70.0187 78.4891 70.0187C80.1867 70.0187 81.5625 71.6705 81.5625 73.7086Z" fill="white"/>
</svg>
