<svg width="166" height="155" viewBox="0 0 166 155" fill="none" xmlns="http://www.w3.org/2000/svg">
<rect width="166" height="155" rx="32" fill="#0666F6"/>
<path fill-rule="evenodd" clip-rule="evenodd" d="M90.0643 38.0509C90.0643 35.8172 88.2493 34 86.0184 34H79.981C77.7501 34 75.9351 35.8172 75.9351 38.0509V44.1072H90.0643V38.0509ZM83.5923 59.3434L107.045 65.4787V50.337C107.045 49.4897 106.356 48.8004 105.51 48.8004H60.4898C59.6436 48.8004 58.9551 49.4897 58.9551 50.337V65.4787L82.4074 59.3434C82.7957 59.2419 83.2038 59.2419 83.5923 59.3434ZM120.656 99.3065C118.069 99.3065 116.902 98.7247 115.425 97.988L115.423 97.9872C114.73 97.6417 113.999 97.2774 113.127 96.967C111.915 96.5357 110.43 96.2086 108.396 96.18L116.977 74.5515C117.167 74.0379 117.015 73.6104 116.907 73.4003C116.798 73.1885 116.535 72.8122 115.998 72.6719L82.9998 64.0393L50.0015 72.6719C49.465 72.8122 49.202 73.1885 49.0931 73.4003C48.9848 73.6105 48.8328 74.0386 49.0233 74.5523L57.5853 96.1803C55.5512 96.211 54.0678 96.5401 52.8569 96.973C51.9914 97.2823 51.2647 97.6444 50.5755 97.9881L50.5745 97.9886C49.0973 98.7249 47.9302 99.3066 45.3437 99.3066C44.0494 99.3066 43 100.357 43 101.653C43 102.949 44.0494 104 45.3437 104C49.0331 104 50.9624 103.038 52.6646 102.19L52.6647 102.19C53.3279 101.859 53.9294 101.56 54.6239 101.33C55.4769 101.048 56.4704 100.871 57.8964 100.871C58.2218 100.871 58.5247 100.88 58.8087 100.898C60.7818 101.02 61.8364 101.546 63.1281 102.19C64.8303 103.038 66.7597 104 70.449 104C74.1379 104 76.0671 103.038 77.7693 102.19L77.7698 102.19L77.7705 102.189C79.2476 101.453 80.4147 100.871 83.001 100.871C85.5877 100.871 86.7546 101.453 88.2321 102.19L88.2323 102.19C89.9345 103.038 91.8637 104 95.5527 104C99.2417 104 101.171 103.038 102.873 102.19L102.873 102.19C104.169 101.544 105.226 101.017 107.211 100.897C107.49 100.88 107.786 100.871 108.105 100.871C109.515 100.871 110.502 101.045 111.349 101.322C112.055 101.552 112.664 101.855 113.336 102.19L113.336 102.19C115.038 103.038 116.967 104 120.656 104C121.951 104 123 102.949 123 101.653C123 100.357 121.95 99.3065 120.656 99.3065ZM61.3315 76.0484L82.4073 70.5348C82.7957 70.4332 83.2038 70.4332 83.5923 70.5348L104.668 76.0484C105.92 76.376 106.67 77.6581 106.343 78.912C106.068 79.9671 105.118 80.666 104.077 80.666C103.881 80.666 103.682 80.6412 103.483 80.5892L82.9998 75.2307L62.5165 80.5892C61.2642 80.9168 59.9836 80.1659 59.6564 78.912C59.3292 77.6581 60.0792 76.376 61.3315 76.0484Z" fill="white"/>
</svg>
