<svg width="177" height="135" viewBox="0 0 177 135" fill="none" xmlns="http://www.w3.org/2000/svg">
<rect width="177" height="135" rx="32" fill="#ED7171"/>
<path fill-rule="evenodd" clip-rule="evenodd" d="M80 47.1155V47.0996L91.976 52.4422L104 47.9522L72 36L40 47.9522L72 59.9044L83.976 55.4303L72 50.5139V50.502L80 47.1155ZM40 87.7928V51.9363L70 63.1434V99L40 87.7928ZM48 84.9363L56 87.9243V83.6733L48 80.6853V84.9363ZM92 66.3984V56.4183L104 51.9363V87.7928L74 99V63.1434L84 59.4064V69.3865L92 66.3984Z" fill="white"/>
<circle cx="131" cy="48" r="6" fill="#F2ADAD"/>
<circle cx="131" cy="68" r="6" fill="white"/>
<circle cx="131" cy="88" r="6" fill="#F2ADAD"/>
</svg>
