<svg width="166" height="155" viewBox="0 0 166 155" fill="none" xmlns="http://www.w3.org/2000/svg">
<rect width="166" height="155" rx="32" fill="#0666F6"/>
<path fill-rule="evenodd" clip-rule="evenodd" d="M113.975 79.5V90.1818C114.204 91.5455 112.832 92.9091 111.233 92.9091C110.09 92.9091 108.965 92.2273 108.279 91.0909C106.907 88.1364 103.937 86.0909 100.28 86.0909C95.9378 86.0909 92.5096 89.0455 91.3669 92.9091H74.6829C73.7685 89.0455 70.112 86.0909 65.7694 86.0909C61.4273 86.0909 57.9991 89.0455 56.8564 92.9091H50V52H81.9964C84.5107 52 86.5673 54.0455 86.5673 56.5455V88.3636H88.8528V64.0455C88.8528 62.4545 90.2243 61.0909 91.824 61.0909H102.109C103.708 61.0909 105.308 62 105.994 63.3636L112.832 74.9545C113.519 76.3182 113.975 77.9091 113.975 79.5ZM93.4237 65.6364V77H109.193L102.566 65.6364H93.4237ZM93.4237 95.1818C93.4237 91.3182 96.3949 88.3636 100.28 88.3636C104.165 88.3636 107.136 91.3182 107.136 95.1818C107.136 99.0455 104.165 102 100.28 102C96.3949 102 93.4237 99.0455 93.4237 95.1818ZM97.0807 95.1818C97.0807 97 98.4515 98.3636 100.28 98.3636C102.109 98.3636 103.479 97 103.479 95.1818C103.479 93.3636 102.109 92 100.28 92C98.4517 92 97.0807 93.3636 97.0807 95.1818ZM65.9982 88.3636C62.1131 88.3636 59.1418 91.3182 59.1418 95.1818C59.1418 99.0455 62.1131 102 65.9982 102C69.8833 102 72.8546 99.0455 72.8546 95.1818C72.8546 91.3182 69.8833 88.3636 65.9982 88.3636ZM65.9982 98.3636C64.1697 98.3636 62.7988 97 62.7988 95.1818C62.7988 93.3636 64.1698 92 65.9982 92C67.8266 92 69.1976 93.3636 69.1976 95.1818C69.1976 97 67.8267 98.3636 65.9982 98.3636ZM67.1409 95.1818C67.1409 95.8094 66.6293 96.3182 65.9982 96.3182C65.3671 96.3182 64.8555 95.8094 64.8555 95.1818C64.8555 94.5542 65.3671 94.0455 65.9982 94.0455C66.6293 94.0455 67.1409 94.5542 67.1409 95.1818ZM100.28 96.3182C100.911 96.3182 101.423 95.8094 101.423 95.1818C101.423 94.5542 100.911 94.0455 100.28 94.0455C99.6489 94.0455 99.1373 94.5542 99.1373 95.1818C99.1373 95.8094 99.6489 96.3182 100.28 96.3182Z" fill="white"/>
</svg>
